{"title":"Pompeii (2014) BRrip 720p x264 Dual Audio [Eng DD 5.1-Hindi DD 5","uid":11159405,"size":1424055720,"categoryP":"video","categoryS":"hd___movies","magnet":"?xt=urn:btih:79bf23abb0314574fa7a777b8ae08b56ac1bf94d&amp;dn=Pompeii+%282014%29+BRrip+720p+x264+Dual+Audio+%5BEng+DD+5.1-Hindi+DD+5&amp;tr=udp%3A%2F%2Ftracker.openbittorrent.com%3A80&amp;tr=udp%3A%2F%2Fopen.demonii.com%3A1337&amp;tr=udp%3A%2F%2Ftracker.coppersurfer.tk%3A6969&amp;tr=udp%3A%2F%2Fexodus.desync.com%3A6969","seeders":5,"leechers":2,"uploader":"Xdesiars","files":5,"time":1412492165,"description":"Format                                   : Matroska\nFormat version                           : Version 2\nFile size                                : 1.31 GiB\nDuration                                 : 1h 44mn\nOverall bit rate                         : 1 792 Kbps\nMovie name                               : Pompeii (2014) by XdesiArsenal [ExD-XMR]\nEncoded date                             : UTC 2014-10-05 03:35:18\nWriting application                      : mkvmerge v5.0.1 ('Es ist Sommer') built on Nov 23 2011 20:48:57\nWriting library                          : libebml v1.2.2 + libmatroska v1.3.0\n\nVideo\nID                                       : 1\nFormat                                   : AVC\nFormat/Info                              : Advanced Video Codec\nFormat profile                           : &lt;a class=&quot;__cf_email__&quot; href=&quot;/cdn-cgi/l/email-protection&quot; data-cfemail=&quot;084569616648443b2639&quot;&gt;[email&amp;#160;protected]&lt;/a&gt;&lt;script cf-hash='f9e31' type=&quot;text/javascript&quot;&gt;\n/* &lt;![CDATA[ */!function(){try{var t=&quot;currentScript&quot;in document?document.currentScript:function(){for(var t=document.getElementsByTagName(&quot;script&quot;),e=t.length;e--;)if(t[e].getAttribute(&quot;cf-hash&quot;))return t[e]}();if(t&amp;&amp;t.previousSibling){var e,r,n,i,c=t.previousSibling,a=c.getAttribute(&quot;data-cfemail&quot;);if(a){for(e=&quot;&quot;,r=parseInt(a.substr(0,2),16),n=2;a.length-n;n+=2)i=parseInt(a.substr(n,2),16)^r,e+=String.fromCharCode(i);e=document.createTextNode(e),c.parentNode.replaceChild(e,c)}}}catch(u){}}();/* ]]&gt; */&lt;/script&gt;\nFormat settings, CABAC                   : Yes\nFormat settings, ReFrames                : 4 frames\nMuxing mode                              : Header stripping\nCodec ID                                 : V_MPEG4/ISO/AVC\nDuration                                 : 1h 44mn\nBit rate                                 : 1 308 Kbps\nWidth                                    : 1 280 pixels\nHeight                                   : 544 pixels\nDisplay aspect ratio                     : 2.40:1\nFrame rate mode                          : Constant\nFrame rate                               : 23.976 fps\nColor space                              : YUV\nChroma subsampling                       : 4:2:0\nBit depth                                : 8 bits\nScan type                                : Progressive\nBits/(Pixel*Frame)                       : 0.078\nStream size                              : 982 MiB (73%)\nTitle                                    : Pompeii (2014) by XdesiArsenal [ExD-XMR]\nWriting library                          : x264 core 112\nLanguage                                 : English\nDefault                                  : Yes\nForced                                   : No\nColor primaries                          : BT.709\nTransfer characteristics                 : BT.709\nMatrix coefficients                      : BT.709\n\nAudio #1\nID                                       : 2\nFormat                                   : AC-3\nFormat/Info                              : Audio Coding 3\nMode extension                           : CM (complete main)\nFormat settings, Endianness              : Big\nMuxing mode                              : Header stripping\nCodec ID                                 : A_AC3\nDuration                                 : 1h 44mn\nBit rate mode                            : Constant\nBit rate                                 : 224 Kbps\nChannel(s)                               : 6 channels\nChannel positions                        : Front: L C R, Side: L R, LFE\nSampling rate                            : 48.0 KHz\nBit depth                                : 16 bits\nCompression mode                         : Lossy\nStream size                              : 168 MiB (13%)\nTitle                                    : XdesiArsenal\nLanguage                                 : English\nDefault                                  : Yes\nForced                                   : No\n\nAudio #2\nID                                       : 3\nFormat                                   : AC-3\nFormat/Info                              : Audio Coding 3\nMode extension                           : CM (complete main)\nFormat settings, Endianness              : Big\nMuxing mode                              : Header stripping\nCodec ID                                 : A_AC3\nDuration                                 : 1h 44mn\nBit rate mode                            : Constant\nBit rate                                 : 224 Kbps\nChannel(s)                               : 6 channels\nChannel positions                        : Front: L C R, Side: L R, LFE\nSampling rate                            : 48.0 KHz\nBit depth                                : 16 bits\nCompression mode                         : Lossy\nStream size                              : 168 MiB (13%)\nTitle                                    : XdesiArsenal\nLanguage                                 : Hindi\nDefault                                  : No\nForced                                   : No\n\nMenu\n00:00:00.000                             : en:Chapter 1\n00:05:27.077                             : en:Chapter 2\n00:09:51.675                             : en:Chapter 3\n00:15:58.459                             : en:Chapter 4\n00:19:52.861                             : en:Chapter 5\n00:26:45.106                             : en:Chapter 6\n00:32:36.624                             : en:Chapter 7\n00:38:18.842                             : en:Chapter 8\n00:47:35.816                             : en:Chapter 9\n00:52:17.723                             : en:Chapter 10\n01:03:25.224                             : en:Chapter 11\n01:09:02.937                             : en:Chapter 12\n01:17:27.316                             : en:Chapter 13\n01:23:46.529                             : en:Chapter 14\n01:30:04.157                             : en:Chapter 15\n01:35:08.128                             : en:Chapter 16\n","torrent":{"xt":"urn:btih:79bf23abb0314574fa7a777b8ae08b56ac1bf94d","amp;dn":"Pompeii+%282014%29+BRrip+720p+x264+Dual+Audio+%5BEng+DD+5.1-Hindi+DD+5","amp;tr":["udp%3A%2F%2Ftracker.openbittorrent.com%3A80","udp%3A%2F%2Fopen.demonii.com%3A1337","udp%3A%2F%2Ftracker.coppersurfer.tk%3A6969","udp%3A%2F%2Fexodus.desync.com%3A6969"],"infoHash":"79bf23abb0314574fa7a777b8ae08b56ac1bf94d","infoHashBuffer":{"type":"Buffer","data":[121,191,35,171,176,49,69,116,250,122,119,123,138,224,139,86,172,27,249,77]},"announce":[],"urlList":[]}}